<?xml version="1.0" standalone="no"?>
<!DOCTYPE svg PUBLIC "-//W3C//DTD SVG 20010904//EN"
 "http://www.w3.org/TR/2001/REC-SVG-20010904/DTD/svg10.dtd">
<svg version="1.0" xmlns="http://www.w3.org/2000/svg"
 width="700.000000pt" height="700.000000pt" viewBox="0 0 700.000000 700.000000"
 preserveAspectRatio="xMidYMid meet">
<metadata>
Created by potrace 1.14, written by Peter Selinger 2001-2017
</metadata>
<g transform="translate(0.000000,700.000000) scale(0.100000,-0.100000)"
fill="#000000" stroke="none">
<path d="M0 3500 l0 -3500 3500 0 3500 0 0 3500 0 3500 -3500 0 -3500 0 0
-3500z m1613 1070 c494 -258 900 -470 903 -470 2 0 4 212 4 470 l0 470 300 0
300 0 0 -1455 0 -1455 -300 0 -300 0 0 669 0 669 -592 308 c-326 170 -732 381
-903 470 l-310 162 -3 -1139 -2 -1139 -300 0 -300 0 0 1455 0 1455 303 0 302
0 898 -470z m4347 447 c415 -83 671 -248 806 -522 171 -349 147 -809 -57
-1114 -144 -216 -391 -372 -691 -437 -176 -38 -289 -43 -850 -44 l-548 0 0
-385 0 -385 -295 0 -295 0 0 1455 0 1456 923 -4 c814 -3 932 -6 1007 -20z"/>
<path d="M4620 3970 l0 -560 498 0 c273 0 538 5 587 10 289 32 469 167 531
397 20 77 20 250 -1 327 -42 157 -149 271 -313 332 -126 48 -213 54 -779 54
l-523 0 0 -560z"/>
</g>
</svg>
